<?xml version="1.0" encoding="utf-8"?>
<!-- Generator: Adobe Illustrator 15.1.0, SVG Export Plug-In . SVG Version: 6.00 Build 0)  -->
<!DOCTYPE svg PUBLIC "-//W3C//DTD SVG 1.1//EN" "http://www.w3.org/Graphics/SVG/1.1/DTD/svg11.dtd">
<svg version="1.1" id="Warstwa_1" xmlns="http://www.w3.org/2000/svg" xmlns:xlink="http://www.w3.org/1999/xlink" x="0px" y="0px"
	 width="612px" height="665.947px" viewBox="0 0 612 665.947" enable-background="new 0 0 612 665.947" xml:space="preserve">
<g id="logo-symbol_1_">
	<path fill="#0D652D" d="M219.16,97.799c3.275,4.287,9.404,5.106,13.689,1.833c23.989-18.329,52.662-28.017,82.917-28.017
		c75.393,0,136.728,61.334,136.728,136.725c0,75.39-61.334,136.724-136.728,136.724c-75.388,0-136.723-61.332-136.723-136.724
		c0-30.256,9.687-58.929,28.017-82.919c3.275-4.283,2.455-10.414-1.832-13.688c-4.285-3.275-10.414-2.455-13.689,1.832
		c-20.953,27.424-32.027,60.197-32.027,94.775c0,86.159,70.096,156.255,156.251,156.255c86.16,0,156.258-70.097,156.258-156.255
		c0-86.159-70.099-156.256-156.258-156.256c-34.578,0-67.35,11.074-94.771,32.026C216.708,87.385,215.885,93.513,219.16,97.799
		L219.16,97.799z M315.766,0c-114.875,0-208.34,93.46-208.34,208.34s93.461,208.341,208.34,208.341
		c114.881,0,208.345-93.459,208.345-208.341C524.109,93.46,430.646,0,315.766,0z M315.766,397.147
		c-104.105,0-188.808-84.698-188.808-188.811c0-104.109,84.699-188.809,188.808-188.809c104.109,0,188.812,84.7,188.812,188.809
		C504.575,312.449,419.875,397.147,315.766,397.147z"/>
</g>
</svg>
